<svg width="18" height="16" viewBox="0 0 18 16" fill="none" xmlns="http://www.w3.org/2000/svg">
<path d="M17.0783 5.47143C16.9933 4.35714 16.0579 3.5 14.9525 3.41429L14.1872 3.32857C13.847 3.32857 13.5069 3.15714 13.3368 2.81429L12.5715 1.61429C12.1463 0.928571 11.381 0.5 10.6157 0.5H7.38444C6.5341 0.5 5.85382 0.928571 5.42865 1.61429L4.66335 2.81429C4.49328 3.07143 4.15314 3.24286 3.81301 3.32857L3.0477 3.41429C1.94226 3.5 1.09192 4.35714 0.92185 5.47143C0.836816 6.58571 0.666748 8.12857 0.666748 9.32857C0.666748 10.5286 0.836816 12.0714 0.92185 13.1857C1.00688 14.3 1.94226 15.1571 3.0477 15.2429C4.74838 15.3286 7.12933 15.5 9.00008 15.5C10.8708 15.5 13.2518 15.3286 14.9525 15.2429C16.0579 15.1571 16.9933 14.3 17.0783 13.1857C17.1633 12.0714 17.3334 10.5286 17.3334 9.32857C17.3334 8.12857 17.1633 6.5 17.0783 5.47143ZM9.00008 12.1571C7.21437 12.1571 5.76879 10.7 5.76879 8.9C5.76879 7.1 7.21437 5.64286 9.00008 5.64286C10.7858 5.64286 12.2314 7.1 12.2314 8.9C12.2314 10.7 10.7858 12.1571 9.00008 12.1571Z" fill="white"/>
</svg>
